# xmcd CD database file
#
# Track frame offsets:
#	150
#	17660
#	34788
#	49994
#	65096
#	80091
#	98314
#	113172
#	131302
#	147937
#	166298
#
# Disc length: 2444 seconds
#
# Revision: 0
# Processed by: cddbd v1.5.2PL0 Copyright (c) Steve Scherf et al.
# Submitted via: CDex 1.70beta2
#
DISCID=8d098a0b
DTITLE=Terje Formoe - Et sted under stjernene
DYEAR=2011
DGENRE=VisePop
TTITLE0=Brennende kjærlighet
TTITLE1=Du
TTITLE2=Du skulle vært et annet sted
TTITLE3=Å, for en sommer
TTITLE4=Sangen til Therese
TTITLE5=Nå kan klovnen gå
TTITLE6=En tegning og en sang
TTITLE7=Hun
TTITLE8=Miriams sang
TTITLE9=Mot kveld
TTITLE10=Vær ikke redd, lille menneske
EXTD=YEAR: 2011
EXTT0=
EXTT1=
EXTT2=
EXTT3=
EXTT4=
EXTT5=
EXTT6=
EXTT7=
EXTT8=
EXTT9=
EXTT10=
PLAYORDER=
